<svg xmlns="http://www.w3.org/2000/svg" viewBox="0 0 512 512">
  <defs>
    <linearGradient id="g" x1="0" y1="0" x2="1" y2="1">
      <stop offset="0%" stop-color="#0083FF"/>
      <stop offset="100%" stop-color="#00B4D8"/>
    </linearGradient>
  </defs>
  <rect width="512" height="512" rx="112" fill="url(#g)"/>
  <line x1="256" y1="256" x2="256" y2="122" stroke="white" stroke-width="8" opacity="0.5" stroke-linecap="round"/>
  <line x1="256" y1="256" x2="372" y2="189" stroke="white" stroke-width="8" opacity="0.5" stroke-linecap="round"/>
  <line x1="256" y1="256" x2="372" y2="323" stroke="white" stroke-width="8" opacity="0.5" stroke-linecap="round"/>
  <line x1="256" y1="256" x2="256" y2="390" stroke="white" stroke-width="8" opacity="0.5" stroke-linecap="round"/>
  <line x1="256" y1="256" x2="140" y2="323" stroke="white" stroke-width="8" opacity="0.5" stroke-linecap="round"/>
  <line x1="256" y1="256" x2="140" y2="189" stroke="white" stroke-width="8" opacity="0.5" stroke-linecap="round"/>
  <circle cx="256" cy="110" r="20" fill="white" opacity="0.8"/>
  <circle cx="384" cy="178" r="20" fill="white" opacity="0.8"/>
  <circle cx="384" cy="334" r="20" fill="white" opacity="0.8"/>
  <circle cx="256" cy="402" r="20" fill="white" opacity="0.8"/>
  <circle cx="128" cy="334" r="20" fill="white" opacity="0.8"/>
  <circle cx="128" cy="178" r="20" fill="white" opacity="0.8"/>
  <path d="M256 190 L270 244 L324 256 L270 268 L256 322 L242 268 L188 256 L242 244 Z" fill="white"/>
</svg>
